<svg xmlns="http://www.w3.org/2000/svg" xmlns:xlink="http://www.w3.org/1999/xlink" width="165" height="20" viewBox="0 0 165 20" fill="none"><g opacity="1"  transform="translate(165 0)  rotate(0)"><rect fill="#575757" opacity="1" transform="translate(0 0) scale(-1 1) rotate(180)" x="0" y="0" width="165" height="20" rx="5" ry="5"/><mask id="bg-mask-0" fill="white"><use transform="translate(0 0) scale(-1 1) rotate(180)" xlink:href="#path_0"></use></mask><g mask="url(#bg-mask-0)" ><g opacity="1"  transform="translate(0 0)  rotate(0)"><path fill="#D12E33" opacity="1" transform="translate(0 0) scale(-1 1) rotate(180)" d="M0 15L0 5C0 2.23858 2.23858 0 5 0L95 0C95 0 95 0 95 0L95 20C95 20 95 20 95 20L5 20C2.23858 20 0 17.7614 0 15Z" /><mask id="bg-mask-1" fill="white"><use transform="translate(0 0) scale(-1 1) rotate(180)" xlink:href="#path_1"></use></mask><g mask="url(#bg-mask-1)" ><g opacity="1" transform="translate(-92 1)  rotate(0)"><a xlink:href="https://" xlink:title="跳转" target="_blank"><text><tspan x="0" y="13.92" font-size="12" line-height="0" fill="#FFFFFF" opacity="1" font-family="SourceHanSansCN-Regular" font-weight="Regular" letter-spacing="0" >2024041163号</tspan></text></a></g><g opacity="1"  transform="translate(95 3)  rotate(0)"><path id="Path 203" fill-rule="evenodd" style="fill:#000000" opacity="1" d="M-10.91 21.79L-18.9 10.79C-19.14 10.46 -18.91 10 -18.5 10L-12.14 10L-13.99 2.62C-14.12 2.09 -13.42 1.76 -13.09 2.21L-5.1 13.21C-4.86 13.54 -5.09 14 -5.5 14L-11.86 14L-10.01 21.38C-9.88 21.91 -10.58 22.24 -10.91 21.79ZM-6.48 13.01L-12.5 13.01C-12.83 13.01 -13.06 13.31 -12.99 13.63L-11.61 19.13L-17.52 11L-11.5 11C-11.17 11 -10.94 10.7 -11.01 10.38L-12.39 4.88L-6.48 13.01Z"></path></g></g></g><g opacity="1" transform="translate(-145 1)  rotate(0)"><a xlink:href="https://" xlink:title="跳转" target="_blank"><text><tspan x="0" y="13.92" font-size="12" line-height="0" fill="#FFFFFF" opacity="1" font-family="SourceHanSansCN-Regular" font-weight="Regular" letter-spacing="1"  >豫ICP备</tspan><tspan x="0" y="31.296" font-size="12" line-height="0" fill="#FFFFFF" opacity="1" font-family="SourceHanSansCN-Regular" font-weight="Regular" letter-spacing="0"  ></tspan><tspan x="0" y="48.672000000000004" font-size="12" line-height="0" fill="#FFFFFF" opacity="1" font-family="SourceHanSansCN-Regular" font-weight="Regular" letter-spacing="0" ></tspan></text></a></g><g opacity="1"  transform="translate(-145.3699951171875 20)  rotate(0)"><path id="Path 203" fill-rule="evenodd" style="fill:#FFFFFF" opacity="1" d="M-6.7154 -16.6585L-13.2491 -9.04977C-13.4379 -8.82423 -13.2958 -8.47165 -12.9968 -8.4475L-8.32199 -8.06996L-10.1155 -2.75709C-10.2466 -2.3764 -9.74757 -2.09532 -9.49256 -2.39577L-2.95885 -10.0045C-2.76011 -10.2292 -2.91216 -10.5826 -3.21119 -10.6068L-7.88597 -10.9843L-6.09246 -16.2972C-5.96139 -16.6779 -6.45042 -16.9581 -6.7154 -16.6585ZM-3.98803 -9.93944L-8.41362 -10.2969C-8.65284 -10.3162 -8.80458 -10.5492 -8.72545 -10.7835L-7.39271 -14.7391L-12.2208 -9.11951L-7.79516 -8.7621C-7.55594 -8.74277 -7.39423 -8.509 -7.47255 -8.28457L-8.81607 -4.31986L-3.98803 -9.93944Z"></path></g></g></g><defs><rect id="path_0" x="0" y="0" width="165" height="20" rx="5" ry="5"/><path id="path_1" d="M0 15L0 5C0 2.23858 2.23858 0 5 0L95 0C95 0 95 0 95 0L95 20C95 20 95 20 95 20L5 20C2.23858 20 0 17.7614 0 15Z" /></defs></svg>